<svg width="135" height="15" viewBox="0 0 135 15" fill="none" xmlns="http://www.w3.org/2000/svg">
<path d="M60.5303 9.35014V12.2308H58.4732V2.5317H61.996C64.9023 2.5317 66.3555 3.65425 66.3555 5.88747C66.3555 8.12069 64.8017 9.35014 61.8765 9.35014H60.524H60.5303ZM60.5303 7.5505H61.8954C63.4051 7.5505 64.2292 7.0219 64.2292 5.91717C64.2292 4.81244 63.4366 4.33728 61.8954 4.33728H60.5303V7.5505Z" fill="white"/>
<path d="M72.3757 12.2308H70.3187V2.5317H73.7849C76.7352 2.5317 78.1758 3.5711 78.1758 5.67959C78.1758 6.93874 77.4838 7.78808 76.3137 8.24541L78.6916 11.8091C78.7671 11.9338 78.8111 12.0169 78.8111 12.0704C78.8111 12.1832 78.6916 12.2367 78.4589 12.2367H77.0372C76.6723 12.2367 76.5402 12.1654 76.32 11.8328L73.81 7.89499C73.7534 7.81184 73.722 7.74056 73.722 7.68711C73.722 7.59208 73.81 7.5505 73.9862 7.53269C75.2191 7.40796 76.0432 6.85559 76.0432 5.83995C76.0432 4.7471 75.238 4.26007 73.722 4.26007H72.577C72.4449 4.26007 72.3883 4.28977 72.3883 4.43825V12.2248L72.3757 12.2308Z" fill="white"/>
<path d="M93.5881 7.36638C93.6321 10.2351 91.2416 12.4505 88.1403 12.3971C85.1019 12.4386 82.724 10.2648 82.768 7.41984C82.724 4.5511 85.1145 2.30601 88.1843 2.35946C91.2542 2.31789 93.6321 4.52141 93.5881 7.36044V7.36638ZM91.4618 7.39608C91.4618 5.48359 90.0087 4.16504 88.1718 4.16504C86.3349 4.16504 84.9006 5.49547 84.9006 7.39608C84.9006 9.29669 86.3097 10.5974 88.1592 10.5974C90.0087 10.5974 91.4618 9.25511 91.4618 7.39608Z" fill="white"/>
<path d="M99.6083 10.4311H104.188V12.2308H97.5513V2.5317H99.6083V10.4311Z" fill="white"/>
<path d="M110.208 12.2308H108.151V2.5317H110.208V12.2308Z" fill="white"/>
<path d="M117.927 2.5317C120.405 2.5317 121.802 3.33352 121.802 5.18068C121.802 6.19038 121.286 6.87341 120.405 7.2179C121.462 7.47923 122.123 8.25729 122.123 9.32638C122.123 11.2686 120.745 12.2367 117.971 12.2367H114.171V2.5317H117.927ZM116.222 6.48141H117.895C119.128 6.48141 119.688 6.11911 119.688 5.35886C119.688 4.59862 119.084 4.26601 117.795 4.26601H116.417C116.285 4.26601 116.228 4.29571 116.228 4.44419V6.48141H116.222ZM118.028 8.1979H116.222V10.4964H117.971C119.393 10.4964 119.997 10.152 119.997 9.32045C119.997 8.48893 119.336 8.1979 118.028 8.1979Z" fill="white"/>
<path d="M126.086 8.10287V2.5317H128.143V7.96626C128.143 9.64117 128.967 10.5974 130.534 10.5974C132.1 10.5974 132.943 9.64117 132.943 7.97814V2.5317H135V8.07317C135 10.9122 133.119 12.3971 130.464 12.3971C127.81 12.3971 126.092 10.9835 126.092 8.10287H126.086Z" fill="white"/>
<path d="M7.9649 14.9985C3.52364 15.0817 -0.0620821 11.6546 0.00082523 7.43765C-0.0620821 3.26225 3.4796 -0.0816339 7.87683 0.00151783C12.3873 -0.0816339 15.9541 3.30383 15.8849 7.52081C15.9478 11.714 12.4062 15.0579 7.9649 14.9985ZM7.8957 1.9734C4.79437 1.91401 2.22145 4.34322 2.28436 7.45547C2.28436 10.6746 4.79436 13.0207 7.93973 13.0207C11.0851 13.0207 13.5951 10.7162 13.5951 7.49705C13.658 4.40262 10.997 1.90807 7.8957 1.9734Z" fill="#3E82F7"/>
<path d="M32.5051 12.3792L43.4509 7.58614L32.4988 2.79898C31.9452 2.53764 31.8131 2.38916 31.8131 1.93182V0.720186C31.8131 0.417276 31.9074 0.262852 32.1087 0.262852C32.1779 0.262852 32.3163 0.304428 32.4988 0.369761L46.5711 6.74274C47.5085 7.17632 47.7161 7.28323 47.7161 7.54456C47.7161 7.82371 47.5085 7.95438 46.5711 8.38796L32.5051 14.6956C32.3226 14.7609 32.1842 14.8025 32.115 14.8025C31.9074 14.8025 31.8194 14.6481 31.8194 14.3689V13.2405C31.8194 12.7831 31.9578 12.6109 32.5051 12.3733V12.3792Z" fill="#D4145A"/>
<path d="M20.408 14.9926C20.408 14.9926 20.3828 14.9807 20.3828 14.9688V0.0252754C20.3828 0.0252754 20.3954 0.00151783 20.408 0.00151783H22.6223C22.6223 0.00151783 22.6601 0.019336 22.6601 0.0371543V14.9629C22.6601 14.9629 22.6475 14.9866 22.6349 14.9866H20.408V14.9926Z" fill="#FDBD00"/>
<path d="M25.0568 14.9926C25.0568 14.9926 25.0317 14.9807 25.0317 14.9688V0.0252754C25.0317 0.0252754 25.0442 0.00151783 25.0568 0.00151783H27.2712C27.2712 0.00151783 27.3089 0.019336 27.3089 0.0371543V14.9629C27.3089 14.9629 27.2963 14.9866 27.2837 14.9866H25.0568V14.9926Z" fill="#FDBD00"/>
</svg>
